# xmcd CD database file
#
# Track frame offsets:
#	150
#	20100
#	31157
#	45185
#	63360
#	82155
#	113550
#	125837
#	145095
#	162885
#	181527
#
# Disc length: 2578 seconds
#
# Revision: 0
# Processed by: cddbd v1.4PL0 Copyright (c) Steve Scherf et al.
# Submitted via: Feurio! 1.62 - http://www.feurio.com
#
DISCID=870a100b
DTITLE=Chris Knight - A Pretty Good Guy
DYEAR=1900
DGENRE=
TTITLE0=Becky's Bible
TTITLE1=A Pretty Good Guy
TTITLE2=Oil Patch Town
TTITLE3=Send a Boat
TTITLE4=Hard Candy
TTITLE5=Down the River
TTITLE6=If I Were You
TTITLE7=North Dakota
TTITLE8=Highway Junkie
TTITLE9=Blame Me
TTITLE10=The Lord's Highway
EXTD=
EXTT0=
EXTT1=
EXTT2=
EXTT3=
EXTT4=
EXTT5=
EXTT6=
EXTT7=
EXTT8=
EXTT9=
EXTT10=
PLAYORDER=
